<?xml version="1.0" encoding="UTF-8" standalone="no"?>
<!-- Created with Inkscape (http://www.inkscape.org/) -->

<svg
   xmlns:dc="http://purl.org/dc/elements/1.1/"
   xmlns:cc="http://creativecommons.org/ns#"
   xmlns:rdf="http://www.w3.org/1999/02/22-rdf-syntax-ns#"
   xmlns:svg="http://www.w3.org/2000/svg"
   xmlns="http://www.w3.org/2000/svg"
   xmlns:sodipodi="http://sodipodi.sourceforge.net/DTD/sodipodi-0.dtd"
   xmlns:inkscape="http://www.inkscape.org/namespaces/inkscape"
   width="360"
   height="360"
   id="svg4231"
   version="1.1"
   inkscape:version="0.48.4 r9939"
   sodipodi:docname="Archer.svg">
  <defs
     id="defs4233" />
  <sodipodi:namedview
     id="base"
     pagecolor="#ffffff"
     bordercolor="#666666"
     borderopacity="1.0"
     inkscape:pageopacity="0.0"
     inkscape:pageshadow="2"
     inkscape:zoom="1.4"
     inkscape:cx="209.63621"
     inkscape:cy="188.60457"
     inkscape:document-units="px"
     inkscape:current-layer="layer1"
     showgrid="false"
     units="in"
     inkscape:snap-page="true"
     showguides="true"
     inkscape:guide-bbox="true"
     inkscape:window-width="1038"
     inkscape:window-height="787"
     inkscape:window-x="482"
     inkscape:window-y="0"
     inkscape:window-maximized="0" />
  <metadata
     id="metadata4236">
    <rdf:RDF>
      <cc:Work
         rdf:about="">
        <dc:format>image/svg+xml</dc:format>
        <dc:type
           rdf:resource="http://purl.org/dc/dcmitype/StillImage" />
        <dc:title></dc:title>
      </cc:Work>
    </rdf:RDF>
  </metadata>
  <g
     inkscape:label="Layer 1"
     inkscape:groupmode="layer"
     id="layer1"
     transform="translate(0,-692.35975)">
    <path
       style="fill:#d63939;fill-opacity:1;fill-rule:nonzero;stroke:none"
       d="m 271.79711,872.80912 c 0,48.80691 0.52097,90.66762 -18.50826,122.6523 -9.51462,15.99228 -20.84406,28.93418 -33.42453,37.87798 -6.29027,4.4719 -30.7291,25.2735 -19.73861,10.2987 6.91646,-9.4237 10.42521,-65.09149 -20.28181,-96.40989 -27.71409,24.45972 -31.08432,83.30689 -22.10272,96.40989 13.4599,19.6363 -13.44834,-5.8268 -19.73859,-10.2987 -12.5805,-8.9438 -23.90996,-21.8857 -33.42457,-37.87798 -19.029185,-31.98466 -16.232175,-68.419 -16.232175,-117.22591 0,-48.80691 -2.79701,-100.74527 16.232175,-132.72988 4.75731,-7.99615 9.96832,-15.22971 15.56259,-21.5822 5.59426,-6.35249 31.99261,-30.79284 21.95889,-16.29581 -15.64164,22.59957 -11.68827,67.25005 -0.74604,95.90362 27.50616,-21.17126 25.31325,-62.50597 37.57999,-109.79314 9.99069,54.26395 14.34697,90.38434 30.75177,108.24275 24.14341,-43.38236 11.00302,-84.47572 3.35085,-97.454 -8.45882,-14.34643 19.09596,13.04412 24.69021,19.39658 5.59426,6.35249 10.80527,13.58605 15.56257,21.5822 19.02923,31.98466 18.50826,78.49655 18.50826,127.30349 z"
       id="path2985-6"
       inkscape:connector-curvature="0"
       sodipodi:nodetypes="sssscssssssscccssss" />
  </g>
</svg>
