<?xml version="1.0" encoding="UTF-8" standalone="no"?>
<!-- Created with Inkscape (http://www.inkscape.org/) -->

<svg
   xmlns:dc="http://purl.org/dc/elements/1.1/"
   xmlns:cc="http://creativecommons.org/ns#"
   xmlns:rdf="http://www.w3.org/1999/02/22-rdf-syntax-ns#"
   xmlns:svg="http://www.w3.org/2000/svg"
   xmlns="http://www.w3.org/2000/svg"
   xmlns:sodipodi="http://sodipodi.sourceforge.net/DTD/sodipodi-0.dtd"
   xmlns:inkscape="http://www.inkscape.org/namespaces/inkscape"
   width="360"
   height="360"
   id="svg4448"
   version="1.1"
   inkscape:version="0.48.4 r9939"
   sodipodi:docname="GrassTileY3.svg">
  <defs
     id="defs4450" />
  <sodipodi:namedview
     id="base"
     pagecolor="#f0f0ae"
     bordercolor="#666666"
     borderopacity="1.0"
     inkscape:pageopacity="0"
     inkscape:pageshadow="2"
     inkscape:zoom="0.98994949"
     inkscape:cx="187.68921"
     inkscape:cy="210.85562"
     inkscape:document-units="px"
     inkscape:current-layer="layer1"
     showgrid="false"
     units="in"
     inkscape:window-width="752"
     inkscape:window-height="787"
     inkscape:window-x="768"
     inkscape:window-y="0"
     inkscape:window-maximized="0" />
  <metadata
     id="metadata4453">
    <rdf:RDF>
      <cc:Work
         rdf:about="">
        <dc:format>image/svg+xml</dc:format>
        <dc:type
           rdf:resource="http://purl.org/dc/dcmitype/StillImage" />
        <dc:title />
      </cc:Work>
    </rdf:RDF>
  </metadata>
  <g
     inkscape:label="Layer 1"
     inkscape:groupmode="layer"
     id="layer1"
     transform="translate(0,-692.35975)">
    <rect
       style="fill:#f0f0ae;fill-opacity:1;fill-rule:nonzero;stroke:none"
       id="rect2983"
       width="358.60419"
       height="359.61429"
       x="1.0101526"
       y="693.75562"
       rx="13.328815"
       ry="0" />
    <g
       id="g3850"
       transform="matrix(0.26216532,0,0,0.26216532,169.4467,722.90167)">
      <path
         sodipodi:nodetypes="sssss"
         inkscape:connector-curvature="0"
         id="path3816"
         d="m 570.46042,449.91019 c 0,48.91374 -8.34292,43.4412 -14.48039,43.4412 -6.13747,0 -11.0573,-14.89531 -7.07183,-63.64641 4.71455,-57.66934 62.22349,-120.89451 68.36096,-120.89451 6.13747,0 -46.80874,63.22517 -46.80874,141.09972 z"
         style="fill:#9bb93b;fill-opacity:1;fill-rule:nonzero;stroke:none" />
      <path
         style="fill:#9bb93b;fill-opacity:1;fill-rule:nonzero;stroke:none"
         d="m 588.14297,455.34604 c -16.0501,46.2055 -22.13538,38.2984 -27.93304,36.28451 -5.79765,-2.0139 -5.55747,-17.69883 14.20406,-62.44295 23.37659,-52.92933 98.44751,-93.78343 104.24517,-91.76954 5.79765,2.01389 -64.96317,44.36516 -90.51619,117.92798 z"
         id="path3819"
         inkscape:connector-curvature="0"
         sodipodi:nodetypes="sssss" />
      <path
         sodipodi:nodetypes="sssss"
         inkscape:connector-curvature="0"
         id="path3821"
         d="m 590.48042,470.67911 c -12.52568,26.61485 -17.21625,22.03306 -21.6978,20.85301 -4.48156,-1.18005 -4.25965,-10.2308 11.13455,-35.99087 18.21031,-30.47246 76.3936,-53.81719 80.87516,-52.63714 4.48153,1.18005 -50.37005,25.40206 -70.31191,67.775 z"
         style="fill:#9bb93b;fill-opacity:1;fill-rule:nonzero;stroke:none" />
    </g>
    <g
       id="g3845"
       transform="matrix(0.29841391,0,0,0.29841391,141.42287,856.28435)">
      <path
         style="fill:#9bb93b;fill-opacity:1;fill-rule:nonzero;stroke:none"
         d="m 387.26653,455.97176 c 0,48.91374 -8.34292,43.4412 -14.48039,43.4412 -6.13747,0 -11.0573,-14.89531 -7.07183,-63.64641 4.71455,-57.66934 62.22349,-120.89451 68.36096,-120.89451 6.13747,0 -46.80874,63.22517 -46.80874,141.09972 z"
         id="path3823"
         inkscape:connector-curvature="0"
         sodipodi:nodetypes="sssss" />
      <path
         sodipodi:nodetypes="sssss"
         inkscape:connector-curvature="0"
         id="path3825"
         d="m 406.96959,462.08111 c -16.0501,46.2055 -22.13538,38.2984 -27.93304,36.28451 -5.79765,-2.0139 -5.55747,-17.69883 14.20406,-62.44295 23.37659,-52.92933 98.44751,-93.78343 104.24517,-91.76954 5.79765,2.01389 -64.96317,44.36516 -90.51619,117.92798 z"
         style="fill:#9bb93b;fill-opacity:1;fill-rule:nonzero;stroke:none" />
      <path
         style="fill:#9bb93b;fill-opacity:1;fill-rule:nonzero;stroke:none"
         d="m 347.21668,477.41419 c 12.52568,26.61485 17.21625,22.03306 21.6978,20.85301 4.48156,-1.18005 4.25965,-10.2308 -11.13455,-35.99087 -18.21031,-30.47246 -76.3936,-53.81719 -80.87516,-52.63714 -4.48153,1.18005 50.37005,25.40206 70.31191,67.775 z"
         id="path3827"
         inkscape:connector-curvature="0"
         sodipodi:nodetypes="sssss" />
    </g>
    <g
       id="g3861"
       transform="matrix(0.2714831,0,0,0.2714831,-36.928332,749.22822)">
      <path
         style="fill:#9bb93b;fill-opacity:1;fill-rule:nonzero;stroke:none"
         d="m 623.2952,656.67838 c 0,47.51339 -7.10239,42.19753 -12.32724,42.19753 -5.22487,0 -9.41315,-14.46887 -6.02031,-61.8243 4.01353,-56.01834 52.97124,-117.43346 58.19611,-117.43346 5.22486,0 -39.84856,61.41512 -39.84856,137.06023 z"
         id="path3837"
         inkscape:connector-curvature="0"
         sodipodi:nodetypes="sssss" />
      <path
         sodipodi:nodetypes="sssss"
         inkscape:connector-curvature="0"
         id="path3839"
         d="m 636.47318,661.93932 c -13.66354,44.88269 -18.84398,37.20196 -23.77956,35.24573 -4.93558,-1.95625 -4.73112,-17.19214 12.092,-60.65529 19.90063,-51.41404 83.80897,-91.09853 88.74455,-89.1423 4.93557,1.95623 -55.30355,43.09504 -77.05699,114.55186 z"
         style="fill:#9bb93b;fill-opacity:1;fill-rule:nonzero;stroke:none" />
      <path
         style="fill:#9bb93b;fill-opacity:1;fill-rule:nonzero;stroke:none"
         d="m 590.6324,658.03076 c 3.51761,43.62805 12.0078,39.66355 18.54312,40.33787 6.53535,0.67434 10.70293,-12.07082 2.95316,-55.99169 -9.16742,-51.95551 -74.95121,-114.66706 -81.48655,-115.3414 -6.5353,-0.67433 54.38995,61.53593 59.99027,130.99522 z"
         id="path3841"
         inkscape:connector-curvature="0"
         sodipodi:nodetypes="sssss" />
    </g>
    <g
       id="g3855"
       transform="matrix(0.18449037,0,0,0.18449037,-14.373391,614.15915)">
      <path
         sodipodi:nodetypes="sssss"
         inkscape:connector-curvature="0"
         id="path3829"
         d="m 385.91952,663.41191 c 0,48.91374 -8.34292,43.4412 -14.48039,43.4412 -6.13747,0 -11.0573,-14.89531 -7.07183,-63.64641 4.71455,-57.66934 62.22349,-120.89451 68.36096,-120.89451 6.13747,0 -46.80874,63.22517 -46.80874,141.09972 z"
         style="fill:#9bb93b;fill-opacity:1;fill-rule:nonzero;stroke:none" />
      <path
         style="fill:#9bb93b;fill-opacity:1;fill-rule:nonzero;stroke:none"
         d="m 403.60206,669.52126 c -16.0501,46.2055 -22.13538,38.2984 -27.93304,36.28451 -5.79765,-2.0139 -5.55747,-17.69883 14.20406,-62.44295 23.37659,-52.92933 98.44751,-93.78343 104.24517,-91.76954 5.79765,2.01389 -64.96317,44.36516 -90.51619,117.92798 z"
         id="path3831"
         inkscape:connector-curvature="0"
         sodipodi:nodetypes="sssss" />
      <path
         sodipodi:nodetypes="sssss"
         inkscape:connector-curvature="0"
         id="path3833"
         d="m 343.84915,684.85434 c 12.52568,26.61485 17.21625,22.03306 21.6978,20.85301 4.48156,-1.18005 4.25965,-10.2308 -11.13455,-35.99087 -18.21031,-30.47246 -76.3936,-53.81719 -80.87516,-52.63714 -4.48153,1.18005 50.37005,25.40206 70.31191,67.775 z"
         style="fill:#9bb93b;fill-opacity:1;fill-rule:nonzero;stroke:none" />
      <path
         sodipodi:nodetypes="sssss"
         inkscape:connector-curvature="0"
         id="path3835"
         d="m 344.69323,668.84776 c 16.0501,46.2055 22.13538,38.2984 27.93304,36.28451 5.79765,-2.0139 5.55747,-17.69883 -14.20406,-62.44295 -23.37659,-52.92933 -98.44751,-93.78343 -104.24517,-91.76954 -5.79765,2.01389 64.96317,44.36516 90.51619,117.92798 z"
         style="fill:#9bb93b;fill-opacity:1;fill-rule:nonzero;stroke:none" />
    </g>
  </g>
</svg>
